<?xml version="1.0" encoding="UTF-8"?>
<svg width="554px" height="47px" viewBox="0 0 554 47" version="1.1" xmlns="http://www.w3.org/2000/svg" xmlns:xlink="http://www.w3.org/1999/xlink">
    <!-- Generator: Sketch 57.1 (83088) - https://sketch.com -->
    <title>logo</title>
    <desc>Created with Sketch.</desc>
    <defs>
        <polygon id="path-1" points="0.96096 0.14784 30.33536 0.14784 30.33536 37.4 0.96096 37.4"></polygon>
        <polygon id="path-3" points="0 0.9768 21.83335 0.9768 21.83335 36.5827 0 36.5827"></polygon>
        <polygon id="path-5" points="0 46.91819 553.4573 46.91819 553.4573 -0.00011 0 -0.00011"></polygon>
    </defs>
    <g id="43&quot;50&quot;-Smart-TV" stroke="none" stroke-width="1" fill="none" fill-rule="evenodd">
        <g id="43&quot;50&quot;-Smart-TV_PC" transform="translate(-679.000000, -353.000000)">
            <g id="01_kv">
                <g id="logo" transform="translate(679.000000, 353.000000)">
                    <g id="编组" transform="translate(225.500000, 9.518190)">
                        <mask id="mask-2" fill="white">
                            <use xlink:href="#path-1"></use>
                        </mask>
                        <g id="Clip-2"></g>
                        <path d="M17.30916,16.30354 C12.45046,15.08364 8.25506,14.02984 8.25506,10.53184 C8.25506,7.10094 12.12156,5.54004 15.71416,5.54004 C17.69526,5.54004 22.50006,5.98444 24.35246,10.10504 L24.56256,10.57144 L29.58956,7.89294 L29.37396,7.47494 C27.03096,2.88794 21.92476,0.14784 15.71416,0.14784 C8.07026,0.14784 2.30406,4.61274 2.30406,10.53184 C2.30406,17.90514 9.22526,19.64314 15.33026,21.17434 C20.18896,22.39424 24.38546,23.44804 24.38546,26.94714 C24.38546,31.51544 18.63796,32.00824 16.16736,32.00824 C11.36366,32.00824 7.56426,29.89734 6.25746,26.49834 L6.06276,25.99014 L0.96096,28.74124 L1.13476,29.14274 C3.30506,34.23574 9.06576,37.40044 16.16736,37.40044 C24.50866,37.40044 30.33536,33.10164 30.33536,26.94714 C30.33536,19.57494 23.41416,17.83694 17.30916,16.30354" id="Fill-1" fill="#000000" mask="url(#mask-2)"></path>
                    </g>
                    <path d="M297.9493,9.66658 C293.2292,9.66658 289.1196,11.78518 286.5467,15.50648 C284.3775,11.73348 280.5814,9.66658 275.7667,9.66658 C271.48,9.66658 268.0106,11.30778 265.4377,14.54838 L265.4377,10.49818 L259.8145,10.49818 L259.8145,46.08648 L265.4377,46.08648 L265.4377,26.42178 C265.4377,18.04308 270.446,15.05878 275.1309,15.05878 C280.0809,15.05878 282.9178,18.31698 282.9178,23.99848 L282.9178,46.08648 L288.5388,46.08648 L288.5388,26.42178 C288.5388,19.09358 291.8553,15.05878 297.88,15.05878 C302.9752,15.05878 306.0189,18.39948 306.0189,23.99848 L306.0189,46.08648 L311.6399,46.08648 L311.6399,23.99848 C311.6399,15.29198 306.2653,9.66658 297.9493,9.66658" id="Fill-3" fill="#000000"></path>
                    <path d="M333.14292,41.52687 C325.60682,41.52687 319.70532,35.71447 319.70532,28.29167 C319.70532,20.87107 325.60682,15.05867 333.14292,15.05867 C340.68012,15.05867 346.58162,20.87107 346.58162,28.29167 C346.58162,35.71447 340.68012,41.52687 333.14292,41.52687 L333.14292,41.52687 Z M346.58162,16.25107 C343.33992,12.04797 338.39432,9.66647 332.79092,9.66647 C322.47512,9.66647 314.08212,18.02207 314.08212,28.29167 C314.08212,38.56237 322.47512,46.91797 332.79092,46.91797 C338.39212,46.91797 343.33772,44.53647 346.58162,40.33337 L346.58162,46.08747 L352.20262,46.08747 L352.20262,10.49807 L346.58162,10.49807 L346.58162,16.25107 Z" id="Fill-5" fill="#000000"></path>
                    <path d="M363.79464,14.9754 L363.79464,10.4984 L358.17254,10.4984 L358.17254,46.0867 L363.79464,46.0867 L363.79464,26.3527 C363.79464,16.4098 371.26584,15.3362 374.47784,15.3362 L374.95634,15.3362 L374.95634,9.944 L374.47784,9.944 C369.61694,9.944 366.10464,11.594 363.79464,14.9754" id="Fill-7" fill="#000000"></path>
                    <path d="M390.57282,0.63888 L384.95072,2.30758 L384.95072,10.49818 L377.53342,10.49818 L377.53342,15.89038 L384.95072,15.89038 L384.95072,36.39548 C384.95072,39.97378 385.89012,42.52688 387.82502,44.20108 C389.56962,45.71028 392.13372,46.45938 395.59982,46.45938 C397.02432,46.45938 398.60172,46.33398 400.33422,46.08098 L400.74562,46.02158 L400.74562,41.09138 L399.16272,41.15738 C395.38752,41.31798 392.91252,41.42688 391.65852,40.22678 C390.91712,39.51728 390.57282,38.29958 390.57282,36.39548 L390.57282,15.89038 L400.74562,15.89038 L400.74562,10.49818 L390.57282,10.49818 L390.57282,0.63888 Z" id="Fill-9" fill="#000000"></path>
                    <polygon id="Fill-11" fill="#000000" points="420.66167 15.76817 430.87847 15.76817 430.87847 46.12157 436.46867 46.12157 436.46867 15.76817 446.73497 15.76817 446.73497 10.37597 420.66167 10.37597"></polygon>
                    <polygon id="Fill-13" fill="#000000" points="464.95702 38.28264 455.25942 10.37564 449.20282 10.37564 461.96722 46.12124 467.90172 46.12124 480.72002 10.37564 474.60952 10.37564"></polygon>
                    <path d="M123.04611,23.27105 C123.04611,18.51465 127.44281,15.32025 131.54801,15.32025 C136.53761,15.32025 139.63741,18.84245 139.63741,24.51075 L139.63741,46.03225 L145.28811,46.03225 L145.28811,23.82215 C145.28811,19.71255 147.55851,15.32025 153.92861,15.32025 C158.88411,15.32025 162.08621,18.92825 162.08621,24.51075 L162.08621,46.03225 L167.73691,46.03225 L167.73691,24.51075 C167.73691,15.56885 162.70991,10.01275 154.61721,10.01275 C149.85091,10.01275 145.72921,12.06315 143.15631,15.67335 C141.46781,12.91785 138.32511,10.01275 132.58091,10.01275 C128.70011,10.01275 125.37591,11.39435 123.04611,13.93865 L123.04611,10.49565 L117.39541,10.49565 L117.39541,46.03225 L123.04611,46.03225 L123.04611,23.27105 Z" id="Fill-15" fill="#000000"></path>
                    <path d="M29.9167,24.47357 C31.2741,18.96807 36.0327,15.18187 41.7197,15.18187 C47.3528,15.18187 51.6802,18.88777 52.6735,24.47357 L29.9167,24.47357 Z M58.4221,27.74387 C58.388,22.36817 56.7017,17.81967 53.5458,14.58897 C50.578,11.54857 46.4266,9.87547 41.8572,9.87547 C31.5029,9.87547 23.9866,17.59417 23.9866,28.23007 C23.9866,38.99467 31.2785,46.51427 41.7197,46.51427 C48.6398,46.51427 54.0309,43.53217 57.3089,37.88917 L57.5916,37.40407 L52.7472,34.28997 L52.4381,34.81797 C49.8828,39.17727 46.4772,41.20787 41.7197,41.20787 C35.0955,41.20787 30.0047,36.24687 29.656,29.57427 L58.4221,29.57427 L58.4221,27.74387 Z" id="Fill-17" fill="#000000"></path>
                    <g id="编组" transform="translate(0.000000, 9.518190)">
                        <mask id="mask-4" fill="white">
                            <use xlink:href="#path-3"></use>
                        </mask>
                        <g id="Clip-20"></g>
                        <polygon id="Fill-19" fill="#000000" mask="url(#mask-4)" points="5.65125 6.2843 21.83335 6.2843 21.83335 0.9768 -0.00055 0.9768 -0.00055 36.5827 5.65125 36.5827"></polygon>
                    </g>
                    <path d="M178.4871,24.47357 C179.8445,18.96807 184.6031,15.18187 190.2901,15.18187 C195.9232,15.18187 200.2495,18.88777 201.2439,24.47357 L178.4871,24.47357 Z M190.2901,46.51427 C197.2102,46.51427 202.6002,43.53217 205.8793,37.88917 L206.162,37.40407 L201.3176,34.28997 L201.0085,34.81797 C198.4532,39.17727 195.0476,41.20787 190.2901,41.20787 C183.6659,41.20787 178.574,36.24687 178.2264,29.57427 L206.9914,29.57427 L206.9914,27.74387 C206.9573,22.36817 205.2721,17.81967 202.1162,14.58897 C199.1473,11.54857 194.997,9.87547 190.4276,9.87547 C180.0722,9.87547 172.5559,17.59417 172.5559,28.23007 C172.5559,38.99467 179.8489,46.51427 190.2901,46.51427 L190.2901,46.51427 Z" id="Fill-21" fill="#000000"></path>
                    <mask id="mask-6" fill="white">
                        <use xlink:href="#path-5"></use>
                    </mask>
                    <g id="Clip-24"></g>
                    <polygon id="Fill-23" fill="#000000" mask="url(#mask-6)" points="104.412 46.03159 110.0627 46.03159 110.0627 -0.00011 104.412 -0.00011"></polygon>
                    <path d="M68.15897,28.36658 C68.15897,21.12528 73.35317,15.66488 80.24137,15.66488 C87.38587,15.66488 92.18627,20.76888 92.18627,28.36658 C92.18627,35.92358 87.38587,41.00008 80.24137,41.00008 C73.35317,41.00008 68.15897,35.56938 68.15897,28.36658 M80.51637,46.65188 C84.64357,46.65188 88.57057,45.27908 91.49767,42.84918 L91.49767,46.10078 L97.08017,46.10078 L97.08017,10.56418 L91.49767,10.56418 L91.49767,13.83228 C88.51777,11.39138 84.58967,10.01308 80.51637,10.01308 C75.46517,10.01308 70.86387,11.89298 67.56167,15.30518 C64.30237,18.67338 62.50717,23.31208 62.50717,28.36658 C62.50717,33.41668 64.30347,38.04438 67.56277,41.39608 C70.86057,44.78518 75.46077,46.65188 80.51637,46.65188" id="Fill-25" fill="#000000" mask="url(#mask-6)"></path>
                    <polygon id="Fill-26" fill="#000000" mask="url(#mask-6)" points="522.3493 34.50997 517.7249 34.50997 517.7249 24.64957 512.105 24.64957 512.105 34.50997 498.8852 34.50997 499.0282 34.26467 512.5417 10.60477 506.4543 10.60477 492.6834 34.71787 492.6834 39.40717 512.105 39.40717 512.105 46.03247 517.7249 46.03247 517.7249 39.40717 522.3493 39.40717"></polygon>
                    <polygon id="Fill-27" fill="#000000" mask="url(#mask-6)" points="546.47626 46.03214 553.45796 46.03214 535.83266 27.82054 535.94926 27.70724 552.92666 10.60444 545.93286 10.60444 530.44706 25.95164 530.44706 10.60444 524.82496 10.60444 524.82496 46.03214 530.44706 46.03214 530.44706 29.70374 530.72756 29.98974"></polygon>
                </g>
            </g>
        </g>
    </g>
</svg>